<?xml version="1.0" encoding="UTF-8"?>
<svg version="1.1" xmlns="http://www.w3.org/2000/svg" width="377" height="107">
<path d="M0 0 C124.41 0 248.82 0 377 0 C377 35.31 377 70.62 377 107 C252.59 107 128.18 107 0 107 C0 71.69 0 36.38 0 0 Z " fill="#EBEBEB" transform="translate(0,0)"/>
<path d="M0 0 C5.28 0 10.56 0 16 0 C16 10.56 16 21.12 16 32 C19.63 32 23.26 32 27 32 C27 37.28 27 42.56 27 48 C3.57 48 -19.86 48 -44 48 C-44 33.15 -44 18.3 -44 3 C-29.48 3 -14.96 3 0 3 C0 2.01 0 1.02 0 0 Z " fill="#ED2027" transform="translate(346,42)"/>
<path d="M0 0 C18.15 0 36.3 0 55 0 C55 3.63 55 7.26 55 11 C41.8 11 28.6 11 15 11 C15 12.65 15 14.3 15 16 C28.2 16 41.4 16 55 16 C55 19.3 55 22.6 55 26 C41.8 26 28.6 26 15 26 C15 28.64 15 31.28 15 34 C28.2 34 41.4 34 55 34 C55 37.3 55 40.6 55 44 C36.85 44 18.7 44 0 44 C0 29.48 0 14.96 0 0 Z " fill="#060606" transform="translate(100,45)"/>
<path d="M0 0 C3.13125774 0.78281443 5.28645751 1.51969648 8.09765625 2.93359375 C8.89042969 3.330625 9.68320313 3.72765625 10.5 4.13671875 C11.345625 4.56597656 12.19125 4.99523438 13.0625 5.4375 C13.93777344 5.87835938 14.81304687 6.31921875 15.71484375 6.7734375 C24.23718376 11.08344613 32.68920167 15.52609243 41.11914062 20.01367188 C43.06621187 21.0347217 45.03355566 22.01677783 47 23 C47 15.74 47 8.48 47 1 C51.95 1 56.9 1 62 1 C62 15.85 62 30.7 62 46 C57.6046323 45.12092646 55.0113594 44.15880119 51.1328125 42.12109375 C50.00593018 41.53279785 48.87904785 40.94450195 47.71801758 40.33837891 C46.52025123 39.70492998 45.32258026 39.07130067 44.125 38.4375 C42.90610774 37.79816058 41.68694997 37.15932709 40.4675293 36.52099609 C36.97368065 34.68942793 33.48618442 32.84611553 30 31 C29.09942871 30.52353027 28.19885742 30.04706055 27.27099609 29.55615234 C23.17277331 27.38492516 19.08501418 25.19624418 15 23 C15 30.26 15 37.52 15 45 C10.05 45 5.1 45 0 45 C0 30.15 0 15.3 0 0 Z " fill="#030303" transform="translate(162,44)"/>
<path d="M0 0 C4.34511007 1.08627752 7.85517311 2.93972497 11.75 5.0625 C19.50626076 9.23154248 27.33831743 13.21763759 35.22998047 17.12304688 C37.82363928 18.40807066 40.41177787 19.70406881 43 21 C44.32 21.66 45.64 22.32 47 23 C47 15.74 47 8.48 47 1 C51.95 1 56.9 1 62 1 C62 15.85 62 30.7 62 46 C57.44892097 45.08978419 54.67016968 43.98347601 50.625 41.8671875 C50.01922119 41.55226349 49.41344238 41.23733948 48.78930664 40.91287231 C46.85641983 39.90609326 44.92824759 38.89063079 43 37.875 C41.73596729 37.21558924 40.47164651 36.55673037 39.20703125 35.8984375 C31.0997104 31.66952188 23.04330932 27.34926136 15 23 C15 30.26 15 37.52 15 45 C10.05 45 5.1 45 0 45 C0 30.15 0 15.3 0 0 Z " fill="#040404" transform="translate(232,44)"/>
<path d="M0 0 C5.64417543 -0.87481479 11.44894222 -1.74088769 17 0 C20.80644982 3.80117041 22.77714408 7.95323645 24.96435547 12.81738281 C26.72141651 16.52038275 28.90884175 19.95549972 31.0625 23.4375 C31.82616439 24.70586184 32.58806937 25.97528581 33.34765625 27.24609375 C33.89292969 28.15488281 34.43820313 29.06367187 35 30 C36.5006155 27.60455025 38.00062804 25.20872806 39.5 22.8125 C39.94980225 22.09376709 40.39960449 21.37503418 40.86303711 20.63452148 C44.44509817 14.9038561 47.98536351 9.14874998 51.50390625 3.37890625 C53 1 53 1 54 0 C55.34267413 -0.08631874 56.68974322 -0.10706473 58.03515625 -0.09765625 C58.84404297 -0.09443359 59.65292969 -0.09121094 60.48632812 -0.08789062 C61.33646484 -0.07951172 62.18660156 -0.07113281 63.0625 -0.0625 C63.91650391 -0.05798828 64.77050781 -0.05347656 65.65039062 -0.04882812 C67.76695663 -0.03700373 69.88348685 -0.01906769 72 0 C70.71869305 3.46028918 69.22904514 6.39502885 67.1640625 9.44921875 C66.60106445 10.2894458 66.03806641 11.12967285 65.45800781 11.99536133 C64.21412156 13.82225713 62.96592467 15.64622391 61.71386719 17.4675293 C58.60407447 22.0144469 55.64568565 26.52656414 53.0390625 31.3828125 C46.36050081 43.49252352 46.36050081 43.49252352 39.8125 45.9921875 C34.6891355 47.13034281 30.51204913 46.7781276 26 44 C19.91741743 37.69153903 15.89357414 29.79739923 11.75390625 22.14648438 C9.07331532 17.33754007 5.92898718 12.89742793 2.74023438 8.41772461 C0.53231046 5.20105788 0 4.06712821 0 0 Z " fill="#040404" transform="translate(0,45)"/>
<path d="M0 0 C4.95 0 9.9 0 15 0 C15 14.52 15 29.04 15 44 C10.05 44 5.1 44 0 44 C0 29.48 0 14.96 0 0 Z " fill="#060606" transform="translate(77,45)"/>
<path d="M0 0 C2.45748469 -0.04721392 4.52701158 0.02758961 6.91625977 0.62792969 C9.20659765 2.97930042 10.43837387 4.59583839 11.97875977 7.37792969 C12.81026187 8.75064618 13.64230121 10.12303739 14.47485352 11.49511719 C14.87945801 12.18702148 15.2840625 12.87892578 15.70092773 13.59179688 C17.52599275 16.64945903 19.53266069 19.56265238 21.54125977 22.50292969 C24.91625977 27.50540004 24.91625977 27.50540004 24.91625977 28.62792969 C23.31358156 28.73617812 21.70880228 28.81363614 20.10375977 28.87792969 C19.21043945 28.92433594 18.31711914 28.97074219 17.39672852 29.01855469 C16.57817383 28.88964844 15.75961914 28.76074219 14.91625977 28.62792969 C14.46637695 27.96792969 14.01649414 27.30792969 13.55297852 26.62792969 C12.10321975 24.42912526 12.10321975 24.42912526 9.73974609 24.17382812 C8.50647583 24.20524902 8.50647583 24.20524902 7.24829102 24.23730469 C5.90927734 24.25664063 5.90927734 24.25664063 4.54321289 24.27636719 C3.61444336 24.30988281 2.68567383 24.34339844 1.72875977 24.37792969 C0.78838867 24.39597656 -0.15198242 24.41402344 -1.12084961 24.43261719 C-3.44283912 24.47976418 -5.76277713 24.54554738 -8.08374023 24.62792969 C-8.74374023 25.94792969 -9.40374023 27.26792969 -10.08374023 28.62792969 C-12.72374023 28.62792969 -15.36374023 28.62792969 -18.08374023 28.62792969 C-17.74519303 22.43450724 -14.63838282 18.42651494 -11.20874023 13.50292969 C-10.66604492 12.705 -10.12334961 11.90707031 -9.56420898 11.08496094 C-8.08643563 8.92069141 -6.5996905 6.76562197 -5.08374023 4.62792969 C-4.61943604 3.89687012 -4.15513184 3.16581055 -3.67675781 2.41259766 C-2.08374023 0.62792969 -2.08374023 0.62792969 0 0 Z " fill="#070707" transform="translate(18.083740234375,8.3720703125)"/>
<path d="M0 0 C-0.33 1.98 -0.66 3.96 -1 6 C-1.60585937 5.855625 -2.21171875 5.71125 -2.8359375 5.5625 C-10.31250618 3.90615248 -18.96801762 2.04450991 -26 6 C-28.57990801 8.57990801 -28.31598838 10.50244461 -28.4609375 14.02734375 C-28.13350848 16.11701139 -28.13350848 16.11701139 -26.5 17.73828125 C-22.92587855 19.54209567 -19.53056435 19.35736947 -15.625 19.25 C-14.8825 19.24484375 -14.14 19.2396875 -13.375 19.234375 C-9.15601337 19.17474268 -5.15310412 18.81743637 -1 18 C-0.505 20.97 -0.505 20.97 0 24 C-8.16694706 28.00013734 -17.22074072 28.37636649 -26.05078125 26.2734375 C-30.94808274 24.48864318 -34.27366021 22.622924 -37 18 C-38.20643566 14.38069302 -38.32268559 11.80768995 -38 8 C-35.5496835 3.19360994 -32.7046466 0.59235629 -28 -2 C-18.85860029 -4.41320167 -8.50483365 -4.16563281 0 0 Z " fill="#0F0F0F" transform="translate(80,11)"/>
<path d="M0 0 C4.31089127 4.20311899 5.18384939 7.30342718 5.3125 13.1875 C5.26672491 19.09902547 4.69357753 22.38302809 1 27 C-1.56983221 29.20271333 -3.73756918 29.1247877 -7 28.9375 C-10.23370242 28.43260966 -10.91035313 28.08728774 -13.375 25.6875 C-17.03501606 19.63439652 -17.84516764 15.1117765 -17 8 C-15.25 4.5 -15.25 4.5 -13 2 C-12.443125 1.360625 -11.88625 0.72125 -11.3125 0.0625 C-7.52930236 -1.67572594 -3.92782278 -1.20578383 0 0 Z " fill="#0C0C0C" transform="translate(171,9)"/>
<path d="M0 0 C2.64 0 5.28 0 8 0 C8 7.26 8 14.52 8 22 C16.58 22 25.16 22 34 22 C34 23.98 34 25.96 34 28 C22.78 28 11.56 28 0 28 C0 18.76 0 9.52 0 0 Z " fill="#080808" transform="translate(84,9)"/>
<path d="M0 0 C9.24 0 18.48 0 28 0 C28 4.29 28 8.58 28 13 C18.76 13 9.52 13 0 13 C0 8.71 0 4.42 0 0 Z " fill="#EEECEC" transform="translate(318,61)"/>
<path d="M0 0 C5.94 0 11.88 0 18 0 C18 1.98 18 3.96 18 6 C14.37 6 10.74 6 7 6 C7 6.99 7 7.98 7 9 C8.3303125 9.1546875 8.3303125 9.1546875 9.6875 9.3125 C13.21777879 10.04519937 15.25993213 10.6513704 18 13 C19.125 16.3125 19.125 16.3125 19 20 C16.30943818 24.19411107 13.91592086 26.90757314 9 28 C5.65899612 28.14392017 2.34139351 28.11678657 -1 28 C-1 26.35 -1 24.7 -1 23 C-0.30132812 22.91363281 0.39734375 22.82726562 1.1171875 22.73828125 C2.02726563 22.59777344 2.93734375 22.45726563 3.875 22.3125 C4.77992188 22.18488281 5.68484375 22.05726562 6.6171875 21.92578125 C7.79667969 21.46751953 7.79667969 21.46751953 9 21 C9.66 19.35 10.32 17.7 11 16 C7.37 15.67 3.74 15.34 0 15 C0 10.05 0 5.1 0 0 Z " fill="#0D0D0D" transform="translate(203,9)"/>
<path d="M0 0 C11.82830611 -0.68902754 11.82830611 -0.68902754 15.6875 1.9375 C18.98509052 4.87859425 18.98509052 4.87859425 19.4375 8.5625 C19.42778823 13.93310742 16.44433587 17.14562415 13 21 C15.31 21.33 17.62 21.66 20 22 C20 23.98 20 25.96 20 28 C12.74 28 5.48 28 -2 28 C4 21 4 21 6.8125 18 C9.31757596 14.56446726 9.74816577 12.19723718 10 8 C6.55549263 5.70366176 4.06187717 5.45983515 0 5 C0 3.35 0 1.7 0 0 Z " fill="#0E0E0E" transform="translate(179,9)"/>
<path d="M0 0 C6.95807037 -0.44571269 11.60393226 -0.68605882 17 4 C18 5 18 5 18.4375 8.5625 C18.42778823 13.93310742 15.44433587 17.14562415 12 21 C14.31 21.33 16.62 21.66 19 22 C19 23.98 19 25.96 19 28 C12.07 28 5.14 28 -2 28 C0.17875239 23.64249522 2.6314215 21.28807389 6.125 18 C7.96042427 16.04221412 9.05464571 14.50061459 10 12 C9.69621948 9.31006947 9.69621948 9.31006947 9 7 C4.545 6.01 4.545 6.01 0 5 C0 3.35 0 1.7 0 0 Z " fill="#0A0A0A" transform="translate(133,9)"/>
<path d="M0 0 C2.4375 0.375 2.4375 0.375 5 1 C6.35550385 3.7110077 6.16917207 5.91339169 6.1875 8.9375 C6.20167969 9.99839844 6.21585938 11.05929688 6.23046875 12.15234375 C6 15 6 15 4 18 C2.0625 17.625 2.0625 17.625 0 17 C-1.42597611 14.14804778 -1.1320252 11.67538825 -1.125 8.5 C-1.12757813 7.3346875 -1.13015625 6.169375 -1.1328125 4.96875 C-1 2 -1 2 0 0 Z " fill="#E3E3E3" transform="translate(163,14)"/>
<path d="M0 0 C2.61724095 2.36797991 4.32861729 4.89600354 6 8 C6 8.66 6 9.32 6 10 C2.04 10 -1.92 10 -6 10 C-1.125 1.125 -1.125 1.125 0 0 Z " fill="#DCDCDC" transform="translate(20,16)"/>
</svg>
