<?xml version="1.0" encoding="UTF-8"?>
<svg version="1.1" xmlns="http://www.w3.org/2000/svg" width="577" height="120">
<path d="M0 0 C190.41 0 380.82 0 577 0 C577 39.6 577 79.2 577 120 C386.59 120 196.18 120 0 120 C0 80.4 0 40.8 0 0 Z " fill="#E9E8E8" transform="translate(0,0)"/>
<path d="M0 0 C9.57 0 19.14 0 29 0 C29 20.46 29 40.92 29 62 C36.26 62 43.52 62 51 62 C51 71.57 51 81.14 51 91 C6.45 91 -38.1 91 -84 91 C-84 62.95 -84 34.9 -84 6 C-56.28 6 -28.56 6 0 6 C0 4.02 0 2.04 0 0 Z " fill="#E60214" transform="translate(93,22)"/>
<path d="M0 0 C2.17639242 1.77355055 3.92366553 3.4215498 5.1875 5.94921875 C5.25700541 7.48945871 5.27202357 9.03256863 5.25 10.57421875 C5.24097656 11.39148437 5.23195313 12.20875 5.22265625 13.05078125 C5.21105469 13.67726563 5.19945312 14.30375 5.1875 14.94921875 C4.5275 14.94921875 3.8675 14.94921875 3.1875 14.94921875 C1.68928941 18.32019258 1.1875 20.15363994 1.1875 23.94921875 C2.6041747 25.70037605 2.6041747 25.70037605 4.1875 26.94921875 C4.785625 26.47484375 5.38375 26.00046875 6 25.51171875 C10.04178332 22.62473067 14.35582451 22.26032752 19.1875 22.94921875 C22.7448669 25.11457251 24.65096303 27.11138439 26.1875 30.94921875 C26.3859573 36.23196316 25.36872907 40.66147522 22.1875 44.94921875 C22.8475 45.77421875 23.5075 46.59921875 24.1875 47.44921875 C26.82080607 51.42739185 26.7850849 54.24323766 26.1875 58.94921875 C24.00719072 62.53115543 22.01349708 64.35154964 18.1875 65.94921875 C13.56887484 66.67140377 9.57778613 66.59692822 5.625 63.94921875 C4.820625 63.28921875 4.01625 62.62921875 3.1875 61.94921875 C0.49288143 64.2518928 -2.16765354 66.58955573 -4.8125 68.94921875 C-5.50214844 69.55894531 -6.19179688 70.16867188 -6.90234375 70.796875 C-10.6914219 74.17996506 -10.6914219 74.17996506 -12.3125 78.82421875 C-12.0157876 80.92138269 -12.0157876 80.92138269 -10.8125 81.94921875 C-8.81291636 81.99002658 -6.81204746 81.99176231 -4.8125 81.94921875 C-4.63307837 78.00194287 -4.71899311 75.35116745 -6.8125 71.94921875 C-5.5625 70.38671875 -5.5625 70.38671875 -3.8125 68.94921875 C-1.38438063 69.10097621 -0.14341662 69.69616486 1.78125 71.16796875 C4.21460646 74.25022026 3.70934469 77.49739711 3.609375 81.28125 C3.1875 83.94921875 3.1875 83.94921875 0.9375 87.01171875 C-3.47945144 90.12366181 -6.25176791 91.82149045 -11.8125 90.94921875 C-15.03149883 88.79882199 -18.06332294 86.44757287 -19.8125 82.94921875 C-20.36691289 78.32305222 -20.60842452 75.01045144 -17.75 71.19921875 C-17.110625 70.45671875 -16.47125 69.71421875 -15.8125 68.94921875 C-15.75883833 65.14594811 -17.23862673 63.25095259 -19.75390625 60.6171875 C-20.95088442 59.44666188 -22.15830964 58.28674115 -23.375 57.13671875 C-24.29829102 56.24049805 -24.29829102 56.24049805 -25.24023438 55.32617188 C-26.75543249 53.85795665 -28.28280438 52.40232322 -29.8125 50.94921875 C-27.8325 48.47421875 -27.8325 48.47421875 -25.8125 45.94921875 C-22.92812221 47.24221569 -20.94030579 48.60863238 -18.8125 50.94921875 C-17.1625 49.29921875 -15.5125 47.64921875 -13.8125 45.94921875 C-16.58789209 39.951215 -21.24011759 34.52125876 -26.8125 30.94921875 C-29.48178121 30.53051322 -29.48178121 30.53051322 -31.8125 30.94921875 C-32.3075 31.44421875 -32.3075 31.44421875 -32.8125 31.94921875 C-32.750625 33.86734375 -32.750625 33.86734375 -32.6875 35.82421875 C-32.61821762 39.69017558 -32.61821762 39.69017558 -34.3125 41.94921875 C-35.055 42.44421875 -35.055 42.44421875 -35.8125 42.94921875 C-38.8125 41.94921875 -38.8125 41.94921875 -40 39.82421875 C-41.01071126 36.24785582 -41.26753042 33.65446648 -40.8125 29.94921875 C-39.02448512 26.97805648 -36.96142094 24.52367922 -33.8125 22.94921875 C-29.08527258 22.38269444 -25.80549648 22.30073126 -21.75 24.94921875 C-21.110625 25.60921875 -20.47125 26.26921875 -19.8125 26.94921875 C-16.65967276 25.52832576 -14.27472036 23.79890024 -11.6875 21.51171875 C-11.00429688 20.91488281 -10.32109375 20.31804688 -9.6171875 19.703125 C-7.61421822 17.87939105 -7.61421822 17.87939105 -5.8125 14.94921875 C-5.1525 14.94921875 -4.4925 14.94921875 -3.8125 14.94921875 C-3.43186779 12.62313305 -3.09980055 10.28866611 -2.8125 7.94921875 C-3.93784105 6.59303376 -3.93784105 6.59303376 -6.875 6.88671875 C-8.3290625 6.91765625 -8.3290625 6.91765625 -9.8125 6.94921875 C-9.88361744 10.00726876 -9.867525 12.70710874 -9.1875 15.69921875 C-9.06375 16.44171875 -8.94 17.18421875 -8.8125 17.94921875 C-9.4725 18.60921875 -10.1325 19.26921875 -10.8125 19.94921875 C-12.6875 19.94921875 -12.6875 19.94921875 -14.8125 18.94921875 C-17.31183509 15.96390184 -18.66958916 13.80668376 -19.3125 9.94921875 C-18.66496032 6.06398067 -17.33958329 3.95439887 -14.8125 0.94921875 C-10.47422292 -1.70195058 -4.53253516 -2.62769819 0 0 Z " fill="#ECC0C4" transform="translate(548.8125,23.05078125)"/>
<path d="M0 0 C0.86625 0.00386719 1.7325 0.00773437 2.625 0.01171875 C5 0.3125 5 0.3125 8 2.3125 C9.04321289 5.07470703 9.04321289 5.07470703 9.97265625 8.5703125 C10.48602539 10.46910156 10.48602539 10.46910156 11.00976562 12.40625 C11.36088458 13.7499458 11.71179446 15.09369624 12.0625 16.4375 C12.41628704 17.75808905 12.77109416 19.07840526 13.12695312 20.3984375 C14.81086269 26.68842862 16.44725017 32.98886598 18 39.3125 C20.06180825 36.21978762 20.64028801 34.21470598 21.4375 30.625 C21.82421875 28.89830078 21.82421875 28.89830078 22.21875 27.13671875 C22.76315588 24.47185195 23.26683087 21.82438688 23.71875 19.14453125 C23.83935791 18.44481201 23.95996582 17.74509277 24.08422852 17.02416992 C24.4216318 15.03122878 24.74057369 13.0351884 25.05859375 11.0390625 C26.12648211 6.81181978 27.69067784 3.98275739 30 0.3125 C31.39538254 0.25777912 32.79140897 0.21938462 34.1875 0.1875 C34.96480469 0.16429688 35.74210937 0.14109375 36.54296875 0.1171875 C39 0.3125 39 0.3125 44 2.3125 C44 17.4925 44 32.6725 44 48.3125 C41.03 48.3125 38.06 48.3125 35 48.3125 C34.67 36.4325 34.34 24.5525 34 12.3125 C31.20167646 23.36266841 31.20167646 23.36266841 28.43652344 34.42114258 C28.07867056 35.80841469 27.71969642 37.19539825 27.359375 38.58203125 C27.1855127 39.30080444 27.01165039 40.01957764 26.83251953 40.76013184 C26.0132655 43.86167113 25.33372143 45.97882014 23.04003906 48.2722168 C20.17145386 49.735003 18.17582705 49.70947838 15 49.3125 C11.94709139 47.67308228 11.09985907 46.57173011 9.83984375 43.30078125 C9.54207031 42.08777344 9.24429688 40.87476563 8.9375 39.625 C8.77467529 38.97233154 8.61185059 38.31966309 8.4440918 37.6472168 C6.92012965 31.37308777 5.73280939 25.03272593 4.61328125 18.67578125 C3.98544938 14.94748608 3.98544938 14.94748608 3 11.3125 C2.34 10.9825 1.68 10.6525 1 10.3125 C1 22.8525 1 35.3925 1 48.3125 C-1.97 48.3125 -4.94 48.3125 -8 48.3125 C-8.07407941 41.9587663 -8.1285688 35.6052832 -8.16479492 29.2512207 C-8.17989444 27.08906679 -8.20037571 24.92694357 -8.22631836 22.76489258 C-8.26265017 19.659591 -8.27971462 16.55469386 -8.29296875 13.44921875 C-8.30845261 12.48038254 -8.32393646 11.51154633 -8.33988953 10.51335144 C-8.34011612 9.6126442 -8.34034271 8.71193695 -8.34057617 7.78393555 C-8.34723801 6.99117722 -8.35389984 6.19841888 -8.36076355 5.38163757 C-7.52257418 0.57425302 -4.38891365 -0.08490458 0 0 Z " fill="#0A0A0A" transform="translate(179,21.6875)"/>
<path d="M0 0 C2.36708302 1.83552753 3.69994712 3.14777669 5.2265625 5.7265625 C5.61474609 9.02294922 5.61474609 9.02294922 5.625 12.90625 C5.62787018 13.59663361 5.63074036 14.28701721 5.63369751 14.99832153 C5.63573433 16.45575787 5.63023111 17.91322179 5.61767578 19.37060547 C5.60166374 21.58754541 5.61751004 23.80264897 5.63671875 26.01953125 C5.63473529 27.44010815 5.63088949 28.86068392 5.625 30.28125 C5.62161621 31.56499512 5.61823242 32.84874023 5.61474609 34.17138672 C5.09314588 38.94845733 3.7584667 42.39459433 0.1015625 45.57421875 C-3.905374 47.18025987 -7.49484713 47.2022642 -11.7734375 47.1640625 C-12.96453125 47.1940332 -12.96453125 47.1940332 -14.1796875 47.22460938 C-18.12290354 47.22132336 -20.27274084 47.02951061 -23.7109375 44.94921875 C-29.09302745 39.14920136 -28.11134143 32.50266608 -28.08911133 25.02758789 C-28.08595272 22.79979465 -28.1094209 20.57333222 -28.13476562 18.34570312 C-28.13703904 16.92187667 -28.13774192 15.49804666 -28.13671875 14.07421875 C-28.13969971 12.78523682 -28.14268066 11.49625488 -28.14575195 10.16821289 C-27.74802914 6.49168932 -27.00411633 4.64014937 -24.7734375 1.7265625 C-18.24494686 -2.57630633 -7.08003893 -3.25083477 0 0 Z " fill="#090909" transform="translate(423.7734375,23.2734375)"/>
<path d="M0 0 C17.49 0 34.98 0 53 0 C53 8.25 53 16.5 53 25 C35.51 25 18.02 25 0 25 C0 16.75 0 8.5 0 0 Z " fill="#EDEDED" transform="translate(39,58)"/>
<path d="M0 0 C1.04027344 -0.0309375 2.08054688 -0.061875 3.15234375 -0.09375 C6.0625 0.5 6.0625 0.5 8.24609375 2.453125 C10.59993168 6.4014983 11.88866037 10.35868506 13.1875 14.75 C13.43886719 15.55824219 13.69023437 16.36648437 13.94921875 17.19921875 C16.09178652 24.21023893 17.67011494 31.30601052 19.0625 38.5 C19.7225 38.5 20.3825 38.5 21.0625 38.5 C21.0625 26.29 21.0625 14.08 21.0625 1.5 C23.7025 1.5 26.3425 1.5 29.0625 1.5 C29.16380235 7.85362146 29.23392368 14.20703523 29.28222656 20.5612793 C29.30235958 22.72346784 29.32966833 24.88560183 29.36425781 27.04760742 C29.41270117 30.15296884 29.43545172 33.25761136 29.453125 36.36328125 C29.47377014 37.33211746 29.49441528 38.30095367 29.51568604 39.29914856 C29.51598816 40.1998558 29.51629028 41.10056305 29.51660156 42.02856445 C29.52548401 42.82132278 29.53436646 43.61408112 29.54351807 44.43086243 C29.0625 46.5 29.0625 46.5 27.2802124 48.25212097 C24.0159916 50.08885719 20.65842591 50.35043313 17.0625 49.5 C11.86156854 46.43176757 10.64783609 42.74375538 9 37.25 C8.74959961 36.46310791 8.49919922 35.67621582 8.24121094 34.86547852 C6.33998345 28.76824929 4.73078191 22.60090097 3.35522461 16.36425781 C2.98204763 14.72858631 2.52956547 13.11137587 2.0625 11.5 C1.4025 11.17 0.7425 10.84 0.0625 10.5 C0.0625 23.04 0.0625 35.58 0.0625 48.5 C-2.9075 48.5 -5.8775 48.5 -8.9375 48.5 C-9.01157941 42.1462663 -9.0660688 35.7927832 -9.10229492 29.4387207 C-9.11739444 27.27656679 -9.13787571 25.11444357 -9.16381836 22.95239258 C-9.20015017 19.847091 -9.21721462 16.74219386 -9.23046875 13.63671875 C-9.24595261 12.66788254 -9.26143646 11.69904633 -9.27738953 10.70085144 C-9.27761612 9.8001442 -9.27784271 8.89943695 -9.27807617 7.97143555 C-9.28473801 7.17867722 -9.29139984 6.38591888 -9.29826355 5.56913757 C-8.38849899 0.35123785 -4.65976591 0.04607927 0 0 Z " fill="#0A0A0A" transform="translate(239.9375,21.5)"/>
<path d="M0 0 C1.70542969 -0.0299707 1.70542969 -0.0299707 3.4453125 -0.06054688 C11.74704016 -0.05567497 11.74704016 -0.05567497 15.7890625 2.21484375 C19.54606595 6.76321601 19.94055324 9.85593445 20 15.8125 C20.02835937 17.09898438 20.05671875 18.38546875 20.0859375 19.7109375 C19.54763716 24.06295886 18.47963216 26.13470033 15.625 29.4375 C11.34650606 32.09730973 6.68745762 31.66791962 1.8125 31.5625 C-0.889375 31.52125 -3.59125 31.48 -6.375 31.4375 C-6.375 37.0475 -6.375 42.6575 -6.375 48.4375 C-9.345 48.4375 -12.315 48.4375 -15.375 48.4375 C-15.44907941 42.0837663 -15.5035688 35.7302832 -15.53979492 29.3762207 C-15.55489444 27.21406679 -15.57537571 25.05194357 -15.60131836 22.88989258 C-15.63765017 19.784591 -15.65471462 16.67969386 -15.66796875 13.57421875 C-15.68345261 12.60538254 -15.69893646 11.63654633 -15.71488953 10.63835144 C-15.71511612 9.7376442 -15.71534271 8.83693695 -15.71557617 7.90893555 C-15.72223801 7.11617722 -15.72889984 6.32341888 -15.73576355 5.50663757 C-14.43617056 -1.9470996 -5.7259785 -0.03546496 0 0 Z " fill="#0A0A0A" transform="translate(327.375,21.5625)"/>
<path d="M0 0 C1.81274414 0.01450195 1.81274414 0.01450195 3.66210938 0.02929688 C5.55606445 0.06700195 5.55606445 0.06700195 7.48828125 0.10546875 C9.39963867 0.12577148 9.39963867 0.12577148 11.34960938 0.14648438 C14.50042182 0.18188676 17.6503917 0.23127085 20.80078125 0.29296875 C20.80078125 2.60296875 20.80078125 4.91296875 20.80078125 7.29296875 C10.90078125 7.78796875 10.90078125 7.78796875 0.80078125 8.29296875 C0.47078125 12.25296875 0.14078125 16.21296875 -0.19921875 20.29296875 C6.40078125 20.29296875 13.00078125 20.29296875 19.80078125 20.29296875 C19.80078125 22.60296875 19.80078125 24.91296875 19.80078125 27.29296875 C13.20078125 27.29296875 6.60078125 27.29296875 -0.19921875 27.29296875 C0.13078125 31.58296875 0.46078125 35.87296875 0.80078125 40.29296875 C7.40078125 40.62296875 14.00078125 40.95296875 20.80078125 41.29296875 C20.80078125 43.60296875 20.80078125 45.91296875 20.80078125 48.29296875 C16.36340413 48.37987128 11.92624491 48.43332801 7.48828125 48.48046875 C5.59432617 48.51817383 5.59432617 48.51817383 3.66210938 48.55664062 C1.84936523 48.57114258 1.84936523 48.57114258 0 48.5859375 C-1.67316284 48.60950317 -1.67316284 48.60950317 -3.38012695 48.63354492 C-6.19921875 48.29296875 -6.19921875 48.29296875 -7.85115051 47.03096008 C-9.50647896 44.89683481 -9.57865316 43.82200259 -9.58740234 41.14453125 C-9.59685883 40.31356934 -9.60631531 39.48260742 -9.61605835 38.62646484 C-9.60998566 37.73266113 -9.60391296 36.83885742 -9.59765625 35.91796875 C-9.60052643 34.99709473 -9.60339661 34.0762207 -9.60635376 33.12744141 C-9.60839506 31.18065781 -9.60286058 29.23385373 -9.59033203 27.28710938 C-9.57427931 24.30422176 -9.59017847 21.32268914 -9.609375 18.33984375 C-9.60739258 16.44921575 -9.60354893 14.5585886 -9.59765625 12.66796875 C-9.60372894 11.77416504 -9.60980164 10.88036133 -9.61605835 9.95947266 C-9.60660187 9.12851074 -9.59714539 8.29754883 -9.58740234 7.44140625 C-9.58501556 6.71099121 -9.58262878 5.98057617 -9.58016968 5.22802734 C-8.53637626 -0.07397163 -4.67317143 -0.06581932 0 0 Z " fill="#070707" transform="translate(144.19921875,21.70703125)"/>
<path d="M0 0 C1.81274414 0.01450195 1.81274414 0.01450195 3.66210938 0.02929688 C5.55606445 0.06700195 5.55606445 0.06700195 7.48828125 0.10546875 C9.39963867 0.12577148 9.39963867 0.12577148 11.34960938 0.14648438 C14.50042182 0.18188676 17.6503917 0.23127085 20.80078125 0.29296875 C20.80078125 2.60296875 20.80078125 4.91296875 20.80078125 7.29296875 C10.90078125 7.78796875 10.90078125 7.78796875 0.80078125 8.29296875 C0.80078125 11.59296875 0.80078125 14.89296875 0.80078125 18.29296875 C3.15649804 20.64868554 9.09638911 19.68965609 12.28515625 19.81640625 C15.92850647 20.31028261 17.88556978 21.10116161 20.80078125 23.29296875 C22.42140628 26.53421881 22.06869477 30.04746737 22.11328125 33.60546875 C22.14228516 34.36537109 22.17128906 35.12527344 22.20117188 35.90820312 C22.24620928 39.89574594 22.10099505 41.82067363 19.90625 45.2734375 C16.5771047 48.46669932 14.65428398 48.41344099 10.13671875 48.390625 C9.01523437 48.38740234 7.89375 48.38417969 6.73828125 48.38085938 C5.56265625 48.37248047 4.38703125 48.36410156 3.17578125 48.35546875 C1.99242187 48.35095703 0.8090625 48.34644531 -0.41015625 48.34179688 C-3.33989382 48.32998342 -6.26953147 48.31351133 -9.19921875 48.29296875 C-9.19921875 45.98296875 -9.19921875 43.67296875 -9.19921875 41.29296875 C0.70078125 40.79796875 0.70078125 40.79796875 10.80078125 40.29296875 C11.99061185 37.91330755 11.93428091 36.3781114 11.92578125 33.73046875 C11.92835938 32.92480469 11.9309375 32.11914062 11.93359375 31.2890625 C12.02089516 29.29354854 12.02089516 29.29354854 10.80078125 28.29296875 C7.43409929 28.08961212 4.07468193 27.94623696 0.703125 27.86328125 C-4.71956253 27.62622387 -4.71956253 27.62622387 -7.14453125 25.94140625 C-9.86492662 21.68952904 -9.41870692 17.1443498 -9.44921875 12.29296875 C-9.46984375 11.473125 -9.49046875 10.65328125 -9.51171875 9.80859375 C-9.516875 9.0196875 -9.52203125 8.23078125 -9.52734375 7.41796875 C-9.53668945 6.69867187 -9.54603516 5.979375 -9.55566406 5.23828125 C-9.19921875 3.29296875 -9.19921875 3.29296875 -8.06616211 1.5534668 C-5.35058508 -0.28000047 -3.25240557 -0.04580853 0 0 Z " fill="#090909" transform="translate(478.19921875,21.70703125)"/>
<path d="M0 0 C3.89558088 -0.11643304 7.79071258 -0.18732909 11.6875 -0.25 C12.79029297 -0.28351562 13.89308594 -0.31703125 15.02929688 -0.3515625 C23.23543471 -0.45073033 23.23543471 -0.45073033 27.20703125 1.890625 C30.8227191 6.14437541 30.5245555 10.25673595 30.453125 15.69140625 C29.70561617 21.14950952 26.95684607 23.42501262 23 27 C21.97129378 28.04434935 20.94966228 29.09569491 19.93359375 30.15234375 C14.10746676 36.17074346 14.10746676 36.17074346 11 39 C10.34 39 9.68 39 9 39 C9 39.66 9 40.32 9 41 C15.27 41 21.54 41 28 41 C28 43.31 28 45.62 28 48 C24.04903022 48.04939662 20.0981797 48.08571755 16.14697266 48.10986328 C14.1408864 48.12488107 12.13488676 48.15028981 10.12890625 48.17578125 C8.87207031 48.18222656 7.61523438 48.18867187 6.3203125 48.1953125 C5.15773926 48.20578613 3.99516602 48.21625977 2.79736328 48.22705078 C0 48 0 48 -2 46 C-2.52097681 42.67877281 -2.71649927 40.19328738 -0.9375 37.23046875 C2.36191233 33.25862185 6.24086009 29.90898496 10.171875 26.578125 C12.14845971 24.91764787 12.14845971 24.91764787 14.375 22.5625 C16 21 16 21 18 21 C18.96070434 18.11788698 19.10581883 16.30149956 19.0625 13.3125 C19.05347656 12.50425781 19.04445313 11.69601563 19.03515625 10.86328125 C19.02355469 10.24839844 19.01195312 9.63351563 19 9 C15.70039859 7.3501993 12.00872116 7.61741639 8.375 7.4375 C7.17230469 7.37272461 7.17230469 7.37272461 5.9453125 7.30664062 C3.9637489 7.20048543 1.98189729 7.09973145 0 7 C0 4.69 0 2.38 0 0 Z " fill="#0B0B0B" transform="translate(361,22)"/>
<path d="M0 0 C3.89558088 -0.11643304 7.79071258 -0.18732909 11.6875 -0.25 C12.79029297 -0.28351562 13.89308594 -0.31703125 15.02929688 -0.3515625 C23.23543471 -0.45073033 23.23543471 -0.45073033 27.20703125 1.890625 C30.05198145 5.23762523 30.20899888 7.34590025 30.3125 11.6875 C30.36857422 13.20923828 30.36857422 13.20923828 30.42578125 14.76171875 C29.48903708 21.88613084 25.22420517 26.17666688 20 30.625 C16.23608122 33.88582072 13.1518979 37.06012762 10 41 C15.94 41 21.88 41 28 41 C28 43.31 28 45.62 28 48 C24.04903022 48.04939662 20.0981797 48.08571755 16.14697266 48.10986328 C14.1408864 48.12488107 12.13488676 48.15028981 10.12890625 48.17578125 C8.87207031 48.18222656 7.61523438 48.18867187 6.3203125 48.1953125 C5.15773926 48.20578613 3.99516602 48.21625977 2.79736328 48.22705078 C0 48 0 48 -2 46 C-2.5713169 42.60129 -2.78341755 40.15849493 -0.79248047 37.21435547 C0.9165703 35.35592485 2.69977379 33.64169632 4.5625 31.9375 C5.17158203 31.35162109 5.78066406 30.76574219 6.40820312 30.16210938 C10.02669747 26.71209519 13.77654453 23.4452581 17.63256836 20.26391602 C19.4278887 18.6045028 19.9748933 17.50012543 20.09765625 15.0546875 C20.08605469 14.33539063 20.07445312 13.61609375 20.0625 12.875 C20.041875 11.59625 20.02125 10.3175 20 9 C17.76352369 7.88176185 16.35108471 7.80603939 13.8671875 7.68359375 C13.06152344 7.64169922 12.25585938 7.59980469 11.42578125 7.55664062 C10.58402344 7.51732422 9.74226563 7.47800781 8.875 7.4375 C8.02550781 7.39431641 7.17601562 7.35113281 6.30078125 7.30664062 C4.20071777 7.20045764 2.10038052 7.09971503 0 7 C0 4.69 0 2.38 0 0 Z " fill="#090909" transform="translate(434,22)"/>
<path d="M0 0 C1.31677734 0.01353516 1.31677734 0.01353516 2.66015625 0.02734375 C3.41167969 0.03894531 4.16320312 0.05054687 4.9375 0.0625 C5.5975 0.0625 6.2575 0.0625 6.9375 0.0625 C8.60416667 0.0625 10.27083333 0.0625 11.9375 0.0625 C11.9375 2.0425 11.9375 4.0225 11.9375 6.0625 C13.030625 6.000625 14.12375 5.93875 15.25 5.875 C18.9375 6.0625 18.9375 6.0625 20.65625 7.09375 C22.63467729 10.13377242 22.25231877 13.25363084 22.125 16.75 C22.10469727 17.8028418 22.10469727 17.8028418 22.08398438 18.87695312 C22.04870182 20.60579829 21.99489583 22.33424765 21.9375 24.0625 C20.6175 24.0625 19.2975 24.0625 17.9375 24.0625 C17.4425 17.6275 17.4425 17.6275 16.9375 11.0625 C15.2875 10.4025 13.6375 9.7425 11.9375 9.0625 C11.9375 14.0125 11.9375 18.9625 11.9375 24.0625 C9.02027452 24.14353404 6.10530484 24.20301081 3.1875 24.25 C2.3625 24.27513672 1.5375 24.30027344 0.6875 24.32617188 C-5.42122096 24.40006769 -5.42122096 24.40006769 -8.578125 22.73828125 C-11.51251361 19.42551095 -11.2549256 15.85192052 -11.3125 11.625 C-11.35117187 9.92537109 -11.35117187 9.92537109 -11.390625 8.19140625 C-11.03253134 4.77672741 -10.48018501 3.45194103 -8.0625 1.0625 C-5.07728951 0.06742984 -3.11098008 -0.04123538 0 0 Z " fill="#DBDBDB" transform="translate(298.0625,85.9375)"/>
<path d="M0 0 C7.92 0 15.84 0 24 0 C24 8.58 24 17.16 24 26 C22.68 26 21.36 26 20 26 C20 25.34 20 24.68 20 24 C14.39 24 8.78 24 3 24 C3 24.66 3 25.32 3 26 C2.01 26 1.02 26 0 26 C0 17.42 0 8.84 0 0 Z " fill="#A1A1A1" transform="translate(419,88)"/>
<path d="M0 0 C2.97 0 5.94 0 9 0 C9 13.53 9 27.06 9 41 C15.93 41 22.86 41 30 41 C30 43.31 30 45.62 30 48 C25.56262288 48.08690253 21.12546366 48.14035926 16.6875 48.1875 C14.79354492 48.22520508 14.79354492 48.22520508 12.86132812 48.26367188 C11.04858398 48.27817383 11.04858398 48.27817383 9.19921875 48.29296875 C7.52605591 48.31653442 7.52605591 48.31653442 5.8190918 48.34057617 C3 48 3 48 1.34509277 46.75817871 C-0.3637951 44.52448128 -0.36404301 43.32111834 -0.34057617 40.52856445 C-0.34034958 39.62785721 -0.34012299 38.72714996 -0.33988953 37.79914856 C-0.32440567 36.83031235 -0.30892181 35.86147614 -0.29296875 34.86328125 C-0.28872391 33.86870407 -0.28447906 32.87412689 -0.28010559 31.84941101 C-0.26330153 28.67016625 -0.22564576 25.49155344 -0.1875 22.3125 C-0.17245541 20.15821227 -0.15876662 18.00391462 -0.14648438 15.84960938 C-0.11339227 10.56616245 -0.06159771 5.2831884 0 0 Z " fill="#090909" transform="translate(278,22)"/>
<path d="M0 0 C2.09619141 1.16210938 2.09619141 1.16210938 4 3 C4.50170898 5.64794922 4.50170898 5.64794922 4.49609375 8.8046875 C4.49673828 9.94550781 4.49738281 11.08632813 4.49804688 12.26171875 C4.47806641 13.45410156 4.45808594 14.64648438 4.4375 15.875 C4.44458984 17.05964844 4.45167969 18.24429688 4.45898438 19.46484375 C4.38576979 29.45581877 4.38576979 29.45581877 1 34 C-1.15625 34.59375 -1.15625 34.59375 -3.5 34.5 C-4.2734375 34.4896875 -5.046875 34.479375 -5.84375 34.46875 C-8.5747755 33.8750488 -9.33130806 33.23898954 -11 31 C-11.38818359 28.13671875 -11.38818359 28.13671875 -11.3984375 24.6875 C-11.40230469 23.44742188 -11.40617187 22.20734375 -11.41015625 20.9296875 C-11.39855469 19.63289063 -11.38695312 18.33609375 -11.375 17 C-11.38660156 15.70320313 -11.39820313 14.40640625 -11.41015625 13.0703125 C-11.40628906 11.83023438 -11.40242188 10.59015625 -11.3984375 9.3125 C-11.39505371 8.17425781 -11.39166992 7.03601562 -11.38818359 5.86328125 C-11 3 -11 3 -9.72119141 1.12890625 C-6.78827124 -0.79475657 -3.34255206 -0.65439599 0 0 Z " fill="#E4E4E4" transform="translate(416,29)"/>
<path d="M0 0 C0.99 0 1.98 0 3 0 C4.6875 2.5 4.6875 2.5 6 5 C5.57589844 5.39791748 5.15179687 5.79583496 4.71484375 6.20581055 C2.79681811 8.01976749 0.89850606 9.85313266 -1 11.6875 C-1.66773438 12.31333984 -2.33546875 12.93917969 -3.0234375 13.58398438 C-3.97089844 14.50727539 -3.97089844 14.50727539 -4.9375 15.44921875 C-5.52402344 16.00955811 -6.11054687 16.56989746 -6.71484375 17.1472168 C-8.38916397 19.56104966 -8.31206474 21.12330324 -8 24 C-6.87465895 25.35618499 -6.87465895 25.35618499 -3.9375 25.0625 C-2.4834375 25.0315625 -2.4834375 25.0315625 -1 25 C-0.82057837 21.05272412 -0.90649311 18.4019487 -3 15 C-1.75 13.4375 -1.75 13.4375 0 12 C2.42811937 12.15175746 3.66908338 12.74694611 5.59375 14.21875 C8.02710646 17.30100151 7.52184469 20.54817836 7.421875 24.33203125 C7 27 7 27 4.75 30.0625 C0.33304856 33.17444306 -2.43926791 34.8722717 -8 34 C-11.21899883 31.84960324 -14.25082294 29.49835412 -16 26 C-16.51944738 21.66559477 -16.66236737 18.13927188 -14.4375 14.3125 C-11.94978587 11.95236095 -9.38340426 9.73926261 -6.73828125 7.55859375 C-5.02498897 6.02240584 -3.66156025 4.4374263 -2.25 2.625 C-1.5075 1.75875 -0.765 0.8925 0 0 Z " fill="#E60C1D" transform="translate(545,80)"/>
<path d="M0 0 C2.17639242 1.77355055 3.92366553 3.4215498 5.1875 5.94921875 C5.25700541 7.48945871 5.27202357 9.03256863 5.25 10.57421875 C5.24097656 11.39148437 5.23195313 12.20875 5.22265625 13.05078125 C5.21105469 13.67726563 5.19945312 14.30375 5.1875 14.94921875 C4.5275 14.94921875 3.8675 14.94921875 3.1875 14.94921875 C2.84525391 16.04363281 2.84525391 16.04363281 2.49609375 17.16015625 C0.92295527 20.51305439 -0.94394815 22.17609514 -3.75 24.57421875 C-7.89533983 28.13987088 -7.89533983 28.13987088 -11.8125 31.94921875 C-13.75 31.19921875 -13.75 31.19921875 -15.8125 29.94921875 C-16.44140625 27.87109375 -16.44140625 27.87109375 -16.8125 25.94921875 C-16.18601562 25.40652344 -15.55953125 24.86382812 -14.9140625 24.3046875 C-14.09679687 23.58925781 -13.27953125 22.87382813 -12.4375 22.13671875 C-11.21933594 21.07517578 -11.21933594 21.07517578 -9.9765625 19.9921875 C-7.65066812 17.94940622 -7.65066812 17.94940622 -5.8125 14.94921875 C-5.1525 14.94921875 -4.4925 14.94921875 -3.8125 14.94921875 C-3.43186779 12.62313305 -3.09980055 10.28866611 -2.8125 7.94921875 C-3.93784105 6.59303376 -3.93784105 6.59303376 -6.875 6.88671875 C-8.3290625 6.91765625 -8.3290625 6.91765625 -9.8125 6.94921875 C-9.88361744 10.00726876 -9.867525 12.70710874 -9.1875 15.69921875 C-9.06375 16.44171875 -8.94 17.18421875 -8.8125 17.94921875 C-9.4725 18.60921875 -10.1325 19.26921875 -10.8125 19.94921875 C-12.6875 19.94921875 -12.6875 19.94921875 -14.8125 18.94921875 C-17.31183509 15.96390184 -18.66958916 13.80668376 -19.3125 9.94921875 C-18.66496032 6.06398067 -17.33958329 3.95439887 -14.8125 0.94921875 C-10.47422292 -1.70195058 -4.53253516 -2.62769819 0 0 Z " fill="#E60F20" transform="translate(548.8125,23.05078125)"/>
<path d="M0 0 C1.32 0 2.64 0 4 0 C4 2.64 4 5.28 4 8 C4.99 8.33 5.98 8.66 7 9 C7.33 6.36 7.66 3.72 8 1 C9.32 1 10.64 1 12 1 C12 2.98 12 4.96 12 7 C12.66 7 13.32 7 14 7 C14.33 7.66 14.66 8.32 15 9 C15.33 6.03 15.66 3.06 16 0 C17.32 0 18.64 0 20 0 C20 8.91 20 17.82 20 27 C18.68 27 17.36 27 16 27 C16 23.04 16 19.08 16 15 C15.01 14.67 14.02 14.34 13 14 C12.67 13.01 12.34 12.02 12 11 C11.67 15.62 11.34 20.24 11 25 C10.01 25 9.02 25 8 25 C8 22.03 8 19.06 8 16 C3.98952626 16.54473322 3.98952626 16.54473322 2.515625 19.06640625 C1.88914062 20.30197266 1.88914062 20.30197266 1.25 21.5625 C0.82203125 22.38878906 0.3940625 23.21507813 -0.046875 24.06640625 C-0.36140625 24.70449219 -0.6759375 25.34257813 -1 26 C-1.99 26 -2.98 26 -4 26 C-4 21.66905042 -3.03435531 19.72965139 -1 16 C-1.66 16 -2.32 16 -3 16 C-3.66 13.36 -4.32 10.72 -5 8 C-4.01 7.67 -3.02 7.34 -2 7 C-1.67 7.66 -1.34 8.32 -1 9 C-0.67 6.03 -0.34 3.06 0 0 Z " fill="#4D4D4D" transform="translate(480,87)"/>
<path d="M0 0 C0.99 0 1.98 0 3 0 C3 1.65 3 3.3 3 5 C6.3 5 9.6 5 13 5 C13 9.62 13 14.24 13 19 C9.7 18.67 6.4 18.34 3 18 C3 20.97 3 23.94 3 27 C1.68 27 0.36 27 -1 27 C-1 24.03 -1 21.06 -1 18 C-3.97 18.33 -6.94 18.66 -10 19 C-10 14.38 -10 9.76 -10 5 C-6.7 5 -3.4 5 0 5 C0 3.35 0 1.7 0 0 Z " fill="#141414" transform="translate(401,87)"/>
<path d="M0 0 C3.76005751 2.59314311 6.8425918 5.71437218 10 9 C11.20752606 10.18832088 12.41571056 11.37597366 13.625 12.5625 C14.40875 13.366875 15.1925 14.17125 16 15 C15.25 16.9375 15.25 16.9375 14 19 C11.921875 19.62890625 11.921875 19.62890625 10 20 C9.55269531 19.46890625 9.10539063 18.9378125 8.64453125 18.390625 C3.104163 11.19430635 3.104163 11.19430635 -4.75 7.6875 C-6.96575091 7.76471482 -6.96575091 7.76471482 -8 9 C-7.95875 10.27875 -7.9175 11.5575 -7.875 12.875 C-7.80571762 16.74095683 -7.80571762 16.74095683 -9.5 19 C-9.995 19.33 -10.49 19.66 -11 20 C-14 19 -14 19 -15.1875 16.875 C-16.19821126 13.29863707 -16.45503042 10.70524773 -16 7 C-12.15427635 0.60952242 -7.25657494 -1.71779316 0 0 Z " fill="#E60B1C" transform="translate(524,46)"/>
<path d="M0 0 C2.45919945 1.19704413 2.94958047 2.43192402 3.91796875 4.93359375 C2.61859375 6.14595703 2.61859375 6.14595703 1.29296875 7.3828125 C0.16731809 8.46156105 -0.95764642 9.54102589 -2.08203125 10.62109375 C-2.654375 11.15154297 -3.22671875 11.68199219 -3.81640625 12.22851562 C-7.19161997 15.42459971 -7.19161997 15.42459971 -8.51953125 19.765625 C-8.29605411 21.90399034 -8.29605411 21.90399034 -7.08203125 22.93359375 C-5.16390625 22.87171875 -5.16390625 22.87171875 -3.20703125 22.80859375 C0.65892558 22.73931137 0.65892558 22.73931137 2.91796875 24.43359375 C3.24796875 24.92859375 3.57796875 25.42359375 3.91796875 25.93359375 C3.10546875 27.87109375 3.10546875 27.87109375 1.91796875 29.93359375 C-2.14447368 31.28774123 -5.84593374 31.73622275 -10.08203125 30.93359375 C-14.23642022 27.85193433 -15.79956428 23.73432067 -16.58203125 18.74609375 C-15.85729368 13.21996976 -12.92079522 10.7648893 -9.08203125 6.93359375 C-8.46070313 6.24136719 -7.839375 5.54914062 -7.19921875 4.8359375 C-6.60367188 4.18753906 -6.008125 3.53914063 -5.39453125 2.87109375 C-4.85441406 2.28199219 -4.31429687 1.69289062 -3.7578125 1.0859375 C-2.08203125 -0.06640625 -2.08203125 -0.06640625 0 0 Z " fill="#E60E1F" transform="translate(524.08203125,58.06640625)"/>
<path d="M0 0 C3.58370248 2.18138412 5.3929505 4.17706287 7 8 C7.6200883 11.30713762 7.19838978 13.86290242 6 17 C2.65546226 21.35492313 -1.07598548 25.16804447 -5 29 C-5.61101563 29.61101562 -6.22203125 30.22203125 -6.8515625 30.8515625 C-7.23054687 31.23054688 -7.60953125 31.60953125 -8 32 C-11.16115776 30.63016497 -11.9927092 30.0109362 -14 27 C-13.0615625 26.11957031 -12.123125 25.23914063 -11.15625 24.33203125 C-9.93684927 23.15953055 -8.71813474 21.98631591 -7.5 20.8125 C-6.87996094 20.23435547 -6.25992188 19.65621094 -5.62109375 19.06054688 C-2.02905816 15.68680443 -2.02905816 15.68680443 -0.53125 11.13671875 C-0.79270386 9.02757575 -0.79270386 9.02757575 -2 8 C-3.918125 8.061875 -3.918125 8.061875 -5.875 8.125 C-9.73572266 8.173432 -9.73572266 8.173432 -12 6.6875 C-13 5 -13 5 -13 2 C-8.71560366 -0.14219817 -4.70975997 -0.78178202 0 0 Z " fill="#E60E1E" transform="translate(568,46)"/>
<path d="M0 0 C4.93640363 1.97911113 7.87600264 6.01952644 11.3671875 9.8828125 C13.86626909 12.27934957 13.86626909 12.27934957 17.2578125 12.3671875 C19.90756293 12.29477218 19.90756293 12.29477218 21 11 C21.04384447 9.33391013 21.0396713 7.66619446 21 6 C21 3 21 3 22.375 1.3125 C24 0 24 0 26 0 C28.89060116 3.55766297 29.53183947 6.61905151 29.35546875 11.0703125 C28.77871991 14.20123478 27.27204469 15.85418001 25 18 C20.76112988 20.52377173 16.82360841 20.69279834 12 20 C7.80481114 17.52102477 4.92686358 13.846735 2 10 C2 9.34 2 8.68 2 8 C0.68 7.67 -0.64 7.34 -2 7 C-2.6875 5.1875 -2.6875 5.1875 -3 3 C-1.5625 1.25 -1.5625 1.25 0 0 Z " fill="#E60C1D" transform="translate(546,69)"/>
<path d="M0 0 C7.92 0 15.84 0 24 0 C24 8.58 24 17.16 24 26 C22.68 26 21.36 26 20 26 C20 25.34 20 24.68 20 24 C14.39 24 8.78 24 3 24 C3 24.66 3 25.32 3 26 C2.01 26 1.02 26 0 26 C0 17.42 0 8.84 0 0 Z M3 3 C3 8.94 3 14.88 3 21 C8.61 21 14.22 21 20 21 C20 15.06 20 9.12 20 3 C14.39 3 8.78 3 3 3 Z " fill="#1D1D1D" transform="translate(419,88)"/>
<path d="M0 0 C1.31291016 -0.03867188 1.31291016 -0.03867188 2.65234375 -0.078125 C5.0625 0.25 5.0625 0.25 6.85546875 1.42578125 C8.50840679 3.92391092 8.46173566 5.71055287 8.4375 8.6875 C8.44523437 9.63496094 8.45296875 10.58242187 8.4609375 11.55859375 C7.99522659 14.7044253 7.37913859 16.07498997 5.0625 18.25 C2.6875 18.74609375 2.6875 18.74609375 0.0625 18.6875 C-0.80375 18.68621094 -1.67 18.68492188 -2.5625 18.68359375 C-5.35192784 18.17433965 -6.21379446 17.45311114 -7.9375 15.25 C-9.52502605 12.0749479 -9.218735 8.71399201 -8.9375 5.25 C-7.18449174 0.36661986 -4.92470882 0.08677901 0 0 Z " fill="#151515" transform="translate(240.9375,91.75)"/>
<path d="M0 0 C7.20970284 1.28172495 12.35858752 9.1661352 16.8125 14.5 C15.26055246 17.82759923 13.50628051 19.98580485 10.8125 22.5 C9.1625 20.85 7.5125 19.2 5.8125 17.5 C3.8325 18.49 3.8325 18.49 1.8125 19.5 C1.48421717 22.62262518 1.48421717 22.62262518 3.78125 24.76171875 C5.03421875 25.96248047 5.03421875 25.96248047 6.3125 27.1875 C7.1478125 27.99574219 7.983125 28.80398437 8.84375 29.63671875 C9.4934375 30.25160156 10.143125 30.86648437 10.8125 31.5 C10.1525 32.82 9.4925 34.14 8.8125 35.5 C8.1525 35.17 7.4925 34.84 6.8125 34.5 C6.8125 33.18 6.8125 31.86 6.8125 30.5 C4.47479203 29.80734579 2.64450144 29.50399997 0.1875 29.5625 C-2.1875 29.5 -2.1875 29.5 -4.1875 27.5 C-4.6875 25.26953125 -4.6875 25.26953125 -4.1875 22.5 C-2.43429336 20.13241534 -0.34364062 18.18581502 1.8125 16.1875 C2.38484375 15.63771484 2.9571875 15.08792969 3.546875 14.52148438 C4.95773949 13.1694059 6.38370512 11.83311665 7.8125 10.5 C7.1525 9.18 6.4925 7.86 5.8125 6.5 C1.93738273 7.04984772 0.21673494 8.77555331 -2.4375 11.5625 C-3.14390625 12.29597656 -3.8503125 13.02945313 -4.578125 13.78515625 C-5.37476563 14.63400391 -5.37476563 14.63400391 -6.1875 15.5 C-7.1775 15.17 -8.1675 14.84 -9.1875 14.5 C-7.93208443 11.98916886 -6.68686512 11.62874554 -4.1875 10.5 C-4.22875 9.22125 -4.27 7.9425 -4.3125 6.625 C-4.3828125 4.4453125 -4.3828125 4.4453125 -4.1875 2.5 C-2.1875 0.5 -2.1875 0.5 0 0 Z " fill="#EDD5D7" transform="translate(519.1875,52.5)"/>
<path d="M0 0 C0.96550781 -0.02578125 1.93101562 -0.0515625 2.92578125 -0.078125 C6.164397 0.30666103 7.48749377 0.84438571 9.6875 3.25 C10.18359375 5.84375 10.18359375 5.84375 10.125 8.75 C10.12371094 9.7090625 10.12242187 10.668125 10.12109375 11.65625 C9.6875 14.25 9.6875 14.25 8.578125 16.08203125 C5.72589508 17.84404932 3.310534 17.53583269 0 17.4375 C-1.76923828 17.39689453 -1.76923828 17.39689453 -3.57421875 17.35546875 C-4.47785156 17.32066406 -5.38148438 17.28585938 -6.3125 17.25 C-6.33934679 14.60409986 -6.35926357 11.95846904 -6.375 9.3125 C-6.38337891 8.55775391 -6.39175781 7.80300781 -6.40039062 7.02539062 C-6.40902441 5.10005687 -6.36474333 3.17464419 -6.3125 1.25 C-4.58915979 -0.47334021 -2.3456379 0.03728166 0 0 Z " fill="#E2E2E2" transform="translate(327.3125,28.75)"/>
<path d="M0 0 C0.99 0 1.98 0 3 0 C3 0.66 3 1.32 3 2 C5.64 2 8.28 2 11 2 C11 3.65 11 5.3 11 7 C12.32 7.33 13.64 7.66 15 8 C15.33 9.98 15.66 11.96 16 14 C14.35 14 12.7 14 11 14 C10.34 15.32 9.68 16.64 9 18 C6.69 18 4.38 18 2 18 C1.67 17.01 1.34 16.02 1 15 C2.65 14.67 4.3 14.34 6 14 C6.33 11.36 6.66 8.72 7 6 C5.35 6 3.7 6 2 6 C1.9175 6.886875 1.835 7.77375 1.75 8.6875 C0.87784167 12.53953262 -0.13794204 14.29264788 -3 17 C-6.25 17.8125 -6.25 17.8125 -9 18 C-9 17.01 -9 16.02 -9 15 C-8.236875 14.566875 -7.47375 14.13375 -6.6875 13.6875 C-3.37056804 11.60477528 -2.4998176 9.55219959 -1 6 C-3.31 6 -5.62 6 -8 6 C-8 4.68 -8 3.36 -8 2 C-5.36 2 -2.72 2 0 2 C0 1.34 0 0.68 0 0 Z " fill="#1C1C1C" transform="translate(457,95)"/>
<path d="M0 0 C1.76923828 0.04060547 1.76923828 0.04060547 3.57421875 0.08203125 C4.47785156 0.11683594 5.38148438 0.15164062 6.3125 0.1875 C6.3125 1.5075 6.3125 2.8275 6.3125 4.1875 C2.6825 4.1875 -0.9475 4.1875 -4.6875 4.1875 C-3.54618342 8.75276633 -3.05113579 8.9892458 0.75 11.3125 C3.22420166 12.84547246 5.24971412 14.12471412 7.3125 16.1875 C7.0625 19.75 7.0625 19.75 6.3125 23.1875 C3.30936252 24.68906874 0.52182478 24.28031204 -2.8125 24.25 C-4.09382812 24.24097656 -5.37515625 24.23195313 -6.6953125 24.22265625 C-8.17644531 24.20525391 -8.17644531 24.20525391 -9.6875 24.1875 C-9.6875 22.8675 -9.6875 21.5475 -9.6875 20.1875 C-5.7275 20.1875 -1.7675 20.1875 2.3125 20.1875 C1.10071999 16.55215996 0.05161373 16.11228955 -3.125 14.125 C-5.58558881 12.57281476 -7.62633462 11.24866538 -9.6875 9.1875 C-10.236708 4.02494482 -10.236708 4.02494482 -8.5859375 1.5078125 C-5.75035955 -0.46425612 -3.40353691 -0.10109516 0 0 Z " fill="#1C1C1C" transform="translate(174.6875,85.8125)"/>
<path d="M0 0 C1.65 0 3.3 0 5 0 C5 1.98 5 3.96 5 6 C6.093125 5.938125 7.18625 5.87625 8.3125 5.8125 C12 6 12 6 13.71875 7.03125 C15.69717729 10.07127242 15.31481877 13.19113084 15.1875 16.6875 C15.17396484 17.38939453 15.16042969 18.09128906 15.14648438 18.81445312 C15.11120182 20.54329829 15.05739583 22.27174765 15 24 C13.68 24 12.36 24 11 24 C10.67 19.71 10.34 15.42 10 11 C7.525 10.01 7.525 10.01 5 9 C5 13.95 5 18.9 5 24 C3.35 24 1.7 24 0 24 C0 16.08 0 8.16 0 0 Z " fill="#262626" transform="translate(215,86)"/>
<path d="M0 0 C1.79133978 -0.05391993 3.58313899 -0.09275571 5.375 -0.125 C6.37273437 -0.14820312 7.37046875 -0.17140625 8.3984375 -0.1953125 C11 0 11 0 13 2 C13.17163731 4.56292317 13.23264558 7.00345857 13.1875 9.5625 C13.18685547 10.26052734 13.18621094 10.95855469 13.18554688 11.67773438 C13.14031158 16.85968842 13.14031158 16.85968842 12 18 C10.19072719 18.12487758 8.37603893 18.17570846 6.5625 18.1875 C5.57378906 18.20167969 4.58507812 18.21585938 3.56640625 18.23046875 C1 18 1 18 -1 16 C-1.25 12.5 -1.25 12.5 -1 9 C1 7 1 7 2.9453125 6.8046875 C4.96354167 6.86979167 6.98177083 6.93489583 9 7 C8.67 6.01 8.34 5.02 8 4 C5.36 3.67 2.72 3.34 0 3 C0 2.01 0 1.02 0 0 Z " fill="#131313" transform="translate(348,92)"/>
<path d="M0 0 C2.31 0 4.62 0 7 0 C7 9.24 7 18.48 7 28 C4.69 28 2.38 28 0 28 C0 18.76 0 9.52 0 0 Z " fill="#E6081A" transform="translate(372,86)"/>
<path d="M0 0 C1.32 0 2.64 0 4 0 C4 8.91 4 17.82 4 27 C2.68 27 1.36 27 0 27 C0 23.04 0 19.08 0 15 C-0.99 14.67 -1.98 14.34 -3 14 C-3.33 13.01 -3.66 12.02 -4 11 C-4.33 15.62 -4.66 20.24 -5 25 C-5.99 25 -6.98 25 -8 25 C-8.12152487 17.26291674 -7.84800767 9.692641 -7 2 C-6.34 2 -5.68 2 -5 2 C-5 3.98 -5 5.96 -5 8 C-3.68 8.33 -2.36 8.66 -1 9 C-0.67 6.03 -0.34 3.06 0 0 Z " fill="#242424" transform="translate(496,87)"/>
<path d="M0 0 C0.90105469 0.00902344 1.80210937 0.01804687 2.73046875 0.02734375 C3.41753906 0.03894531 4.10460937 0.05054687 4.8125 0.0625 C4.8125 1.3825 4.8125 2.7025 4.8125 4.0625 C3.85537109 4.15337891 3.85537109 4.15337891 2.87890625 4.24609375 C2.05261719 4.32988281 1.22632813 4.41367188 0.375 4.5 C-0.86056641 4.62181641 -0.86056641 4.62181641 -2.12109375 4.74609375 C-4.17412025 4.85180815 -4.17412025 4.85180815 -5.1875 6.0625 C-5.28623816 8.06049572 -5.31721799 10.06207158 -5.3125 12.0625 C-5.31636719 13.7021875 -5.31636719 13.7021875 -5.3203125 15.375 C-5.49297755 17.98080354 -5.49297755 17.98080354 -4.1875 19.0625 C-2.67280552 19.29442865 -1.14995438 19.47465238 0.375 19.625 C1.20128906 19.70878906 2.02757812 19.79257813 2.87890625 19.87890625 C3.83603516 19.96978516 3.83603516 19.96978516 4.8125 20.0625 C4.8125 21.3825 4.8125 22.7025 4.8125 24.0625 C3.0632786 24.14392927 1.31295458 24.20188541 -0.4375 24.25 C-1.41203125 24.28480469 -2.3865625 24.31960937 -3.390625 24.35546875 C-6.61526918 24.01769178 -7.89540797 23.31779239 -10.1875 21.0625 C-11.2941598 17.74252061 -11.38990272 15.11943373 -11.4375 11.625 C-11.47617187 9.92537109 -11.47617187 9.92537109 -11.515625 8.19140625 C-11.15753134 4.77672741 -10.60518501 3.45194103 -8.1875 1.0625 C-5.17259443 0.05753148 -3.14568308 -0.04085303 0 0 Z " fill="#1B1B1B" transform="translate(298.1875,85.9375)"/>
<path d="M0 0 C0.99 0 1.98 0 3 0 C3 1.65 3 3.3 3 5 C4.258125 4.938125 5.51625 4.87625 6.8125 4.8125 C9.29464941 4.69042708 10.59725742 4.76266955 12.75 6.03125 C14.6852623 9.07928812 14.31438487 12.20304613 14.1875 15.6875 C14.17396484 16.38939453 14.16042969 17.09128906 14.14648438 17.81445312 C14.11120182 19.54329829 14.05739583 21.27174765 14 23 C12.68 23 11.36 23 10 23 C9.67 18.71 9.34 14.42 9 10 C6.525 9.01 6.525 9.01 4 8 C4 12.95 4 17.9 4 23 C2.68 23 1.36 23 0 23 C0 15.41 0 7.82 0 0 Z " fill="#131313" transform="translate(306,87)"/>
<path d="M0 0 C1.65 0 3.3 0 5 0 C5.33 4.62 5.66 9.24 6 14 C7.65 14.33 9.3 14.66 11 15 C11 10.05 11 5.1 11 0 C12.32 0 13.64 0 15 0 C15.02684312 2.81256281 15.04676188 5.62487241 15.0625 8.4375 C15.07087891 9.23994141 15.07925781 10.04238281 15.08789062 10.86914062 C15.0965143 12.91295221 15.0522815 14.95683902 15 17 C13.26521442 18.73478558 10.98462677 18.25366416 8.625 18.3125 C7.64789063 18.34988281 6.67078125 18.38726562 5.6640625 18.42578125 C3 18 3 18 1.16015625 16.43359375 C-0.43058063 13.09679551 -0.2896563 10.42762686 -0.1875 6.75 C-0.16042969 5.48671875 -0.13335937 4.2234375 -0.10546875 2.921875 C-0.07066406 1.95765625 -0.03585938 0.9934375 0 0 Z " fill="#202020" transform="translate(184,92)"/>
<path d="M0 0 C0.88429688 -0.01417969 1.76859375 -0.02835937 2.6796875 -0.04296875 C5.125 0.1875 5.125 0.1875 8.125 2.1875 C8.34607787 4.9760289 8.40607535 7.53403181 8.3125 10.3125 C8.29896484 11.06660156 8.28542969 11.82070312 8.27148438 12.59765625 C8.23609985 14.46124127 8.18229167 16.32445978 8.125 18.1875 C6.805 18.1875 5.485 18.1875 4.125 18.1875 C3.795 13.8975 3.465 9.6075 3.125 5.1875 C0.65 4.1975 0.65 4.1975 -1.875 3.1875 C-1.875 8.1375 -1.875 13.0875 -1.875 18.1875 C-3.195 18.1875 -4.515 18.1875 -5.875 18.1875 C-5.90184312 15.37493719 -5.92176188 12.56262759 -5.9375 9.75 C-5.94587891 8.94755859 -5.95425781 8.14511719 -5.96289062 7.31835938 C-5.9715143 5.27454779 -5.9272815 3.23066098 -5.875 1.1875 C-4.21846314 -0.46903686 -2.26849204 0.01643835 0 0 Z " fill="#131313" transform="translate(335.875,91.8125)"/>
<path d="M0 0 C1.32 0 2.64 0 4 0 C4.33 4.62 4.66 9.24 5 14 C6.65 14.33 8.3 14.66 10 15 C10 10.05 10 5.1 10 0 C11.32 0 12.64 0 14 0 C14.02684312 2.81256281 14.04676188 5.62487241 14.0625 8.4375 C14.07087891 9.23994141 14.07925781 10.04238281 14.08789062 10.86914062 C14.0965143 12.91295221 14.0522815 14.95683902 14 17 C12.34233202 18.65766798 10.39653595 18.21049503 8.125 18.25 C7.24070312 18.27578125 6.35640625 18.3015625 5.4453125 18.328125 C3 18 3 18 1.19140625 16.96484375 C-0.66421831 13.90458423 -0.31353902 10.77372529 -0.1875 7.3125 C-0.17396484 6.61060547 -0.16042969 5.90871094 -0.14648438 5.18554688 C-0.11120182 3.45670171 -0.05739583 1.72825235 0 0 Z " fill="#131313" transform="translate(252,92)"/>
<path d="M0 0 C3.86828312 1.51968265 5.43842183 3.79802729 8 7 C10.60135599 9.41125689 13.28728384 11.7152609 16 14 C15.67 15.32 15.34 16.64 15 18 C12.95703125 18.93359375 12.95703125 18.93359375 10 19 C7.22427968 17.0209342 4.9968576 14.55736727 2.6875 12.0625 C2.04232422 11.39025391 1.39714844 10.71800781 0.73242188 10.02539062 C-0.85933005 8.36289417 -2.43546905 6.68807156 -4 5 C-2.68 3.35 -1.36 1.7 0 0 Z " fill="#E60E1F" transform="translate(523,69)"/>
<path d="M0 0 C2.75015375 0.08088688 4.48069392 0.4834784 6.45703125 2.44921875 C7.46252948 3.67226542 8.45700478 4.90444109 9.44140625 6.14453125 C11.69056699 8.82210356 14.25528263 10.84343636 17 13 C16.75 14.875 16.75 14.875 16 17 C14.02 17.99 14.02 17.99 12 19 C7.05 14.05 2.1 9.1 -3 4 C-2.01 2.68 -1.02 1.36 0 0 Z " fill="#E60D1E" transform="translate(546,47)"/>
<path d="M0 0 C1.32 0.99 2.64 1.98 4 3 C3.41889329 6.42754467 2.31446376 8.04538661 -0.16015625 10.453125 C-0.78857422 11.071875 -1.41699219 11.690625 -2.06445312 12.328125 C-2.72380859 12.96234375 -3.38316406 13.5965625 -4.0625 14.25 C-4.72572266 14.8996875 -5.38894531 15.549375 -6.07226562 16.21875 C-7.70829317 17.8194676 -9.35090912 19.41276193 -11 21 C-12.65 19.35 -14.3 17.7 -16 16 C-10.72 10.72 -5.44 5.44 0 0 Z " fill="#E60617" transform="translate(547,57)"/>
<path d="M0 0 C4.62 0 9.24 0 14 0 C14 0.99 14 1.98 14 3 C12.35 3 10.7 3 9 3 C9 3.66 9 4.32 9 5 C10.32 5 11.64 5 13 5 C13.33 7.97 13.66 10.94 14 14 C9.38 14 4.76 14 0 14 C0 13.34 0 12.68 0 12 C1.98 12 3.96 12 6 12 C6 10.68 6 9.36 6 8 C4.35 8 2.7 8 1 8 C1 7.34 1 6.68 1 6 C2.32 6 3.64 6 5 6 C5 5.01 5 4.02 5 3 C3.35 3 1.7 3 0 3 C0 2.01 0 1.02 0 0 Z " fill="#060606" transform="translate(424,93)"/>
<path d="M0 0 C4.29 0 8.58 0 13 0 C12.04227639 4.78861807 11.21351603 6.5270236 8.4375 10.3125 C7.79683594 11.19550781 7.15617188 12.07851562 6.49609375 12.98828125 C6.00238281 13.65214844 5.50867188 14.31601563 5 15 C7.64 15 10.28 15 13 15 C13 15.99 13 16.98 13 18 C8.71 18 4.42 18 0 18 C0 12.64962552 0.28569398 12.03318756 3.5 8.1875 C4.1496875 7.39730469 4.799375 6.60710937 5.46875 5.79296875 C6.22671875 4.90544922 6.22671875 4.90544922 7 4 C4.69 3.67 2.38 3.34 0 3 C0 2.01 0 1.02 0 0 Z " fill="#161616" transform="translate(201,92)"/>
<path d="M0 0 C0.66 0.66 1.32 1.32 2 2 C0.68 2.99 -0.64 3.98 -2 5 C-1.73323796 6.98491642 -1.73323796 6.98491642 -1 9 C-0.01 9.33 0.98 9.66 2 10 C3.38671875 11.62890625 3.38671875 11.62890625 4.6875 13.5625 C5.12449219 14.20316406 5.56148437 14.84382813 6.01171875 15.50390625 C6.50091797 16.24447266 6.50091797 16.24447266 7 17 C6.01 17 5.02 17 4 17 C3.34 15.68 2.68 14.36 2 13 C-1.86038436 15.08906965 -4.46552611 17.35798817 -7.3125 20.6875 C-8.35857422 21.89986328 -8.35857422 21.89986328 -9.42578125 23.13671875 C-10.20501953 24.05904297 -10.20501953 24.05904297 -11 25 C-11.33 23.68 -11.66 22.36 -12 21 C-10.68 20.34 -9.36 19.68 -8 19 C-8.55550695 15.40094092 -9.74887248 14.00090201 -12.5625 11.75 C-13.20316406 11.22921875 -13.84382812 10.7084375 -14.50390625 10.171875 C-14.99761719 9.78515625 -15.49132812 9.3984375 -16 9 C-15.34 8.34 -14.68 7.68 -14 7 C-12.68 7.99 -11.36 8.98 -10 10 C-6.7 6.7 -3.4 3.4 0 0 Z " fill="#EDE9E9" transform="translate(546,67)"/>
<path d="M0 0 C1.32 0 2.64 0 4 0 C4 0.66 4 1.32 4 2 C6.97 2 9.94 2 13 2 C13 1.34 13 0.68 13 0 C13.99 0 14.98 0 16 0 C16 0.66 16 1.32 16 2 C17.65 2 19.3 2 21 2 C21 2.99 21 3.98 21 5 C19.35 5 17.7 5 16 5 C16 5.99 16 6.98 16 8 C15.01 8 14.02 8 13 8 C13 7.01 13 6.02 13 5 C10.03 5 7.06 5 4 5 C4 5.99 4 6.98 4 8 C2.68 8 1.36 8 0 8 C0 7.34 0 6.68 0 6 C-1.65 5.67 -3.3 5.34 -5 5 C-5 4.01 -5 3.02 -5 2 C-3.35 2 -1.7 2 0 2 C0 1.34 0 0.68 0 0 Z " fill="#202020" transform="translate(451,87)"/>
<path d="M0 0 C0.99 0 1.98 0 3 0 C3 0.99 3 1.98 3 3 C4.32 3.33 5.64 3.66 7 4 C5.68 4 4.36 4 3 4 C2.84144531 4.67546875 2.68289063 5.3509375 2.51953125 6.046875 C1.40489994 10.30833835 0.57877292 13.34507274 -2.375 16.6875 C-5 18 -5 18 -7.8125 17.75 C-8.534375 17.5025 -9.25625 17.255 -10 17 C-9 15 -9 15 -6.625 13.75 C-3.40860113 11.60573409 -2.48283223 9.51197106 -1 6 C-3.31 6 -5.62 6 -8 6 C-8 4.68 -8 3.36 -8 2 C-5.36 2 -2.72 2 0 2 C0 1.34 0 0.68 0 0 Z " fill="#1A1A1A" transform="translate(457,95)"/>
<path d="M0 0 C2.5625 0.1875 2.5625 0.1875 4.5625 2.1875 C4.828125 4.0625 4.828125 4.0625 4.8125 6.1875 C4.81765625 6.88875 4.8228125 7.59 4.828125 8.3125 C4.5625 10.1875 4.5625 10.1875 2.5625 12.1875 C0 12.375 0 12.375 -2.4375 12.1875 C-3.4375 11.1875 -3.4375 11.1875 -3.5703125 8.9375 C-3.56773437 8.03 -3.56515625 7.1225 -3.5625 6.1875 C-3.56507813 5.28 -3.56765625 4.3725 -3.5703125 3.4375 C-3.38424141 0.28523683 -3.15680703 0.24283131 0 0 Z " fill="#E0E0E0" transform="translate(240.4375,94.8125)"/>
<path d="M0 0 C0.495 0.66 0.99 1.32 1.5 2 C4.2607785 4.2086228 4.77753795 4.2345533 8.125 4.125 C10.043125 4.063125 10.043125 4.063125 12 4 C14 6 14 6 14.375 8.35546875 C13.88016467 11.84508871 12.56289132 12.94983456 10 15.3125 C9.2575 16.00988281 8.515 16.70726563 7.75 17.42578125 C7.1725 17.94527344 6.595 18.46476562 6 19 C5.34 18.34 4.68 17.68 4 17 C5.32 16.01 6.64 15.02 8 14 C7.46324097 10.14896699 5.88399077 8.68202413 2.9375 6.25 C2.20402344 5.63640625 1.47054687 5.0228125 0.71484375 4.390625 C0.14894531 3.93171875 -0.41695312 3.4728125 -1 3 C-0.67 2.01 -0.34 1.02 0 0 Z " fill="#ECC3C6" transform="translate(554,49)"/>
<path d="M0 0 C0.99 0.66 1.98 1.32 3 2 C0.525 3.485 0.525 3.485 -2 5 C-1.67 5.53625 -1.34 6.0725 -1 6.625 C0.23696723 9.56279717 0.21056341 11.84154883 0 15 C-1 16 -1 16 -3.9375 16.1875 C-7 16 -7 16 -9 14 C-9.40625 11.67578125 -9.40625 11.67578125 -9 9 C-7.03125 6.54296875 -7.03125 6.54296875 -4.5 4.1875 C-3.6646875 3.39730469 -2.829375 2.60710937 -1.96875 1.79296875 C-1.3190625 1.20128906 -0.669375 0.60960938 0 0 Z " fill="#EDD6D8" transform="translate(545,90)"/>
<path d="M0 0 C3.0625 0.1875 3.0625 0.1875 5.0625 2.1875 C4.78367501 6.29506808 3.36483724 8.45272929 0.625 11.4375 C0.00753906 12.12328125 -0.60992188 12.8090625 -1.24609375 13.515625 C-2.9375 15.1875 -2.9375 15.1875 -4.9375 16.1875 C-5.5975 15.5275 -6.2575 14.8675 -6.9375 14.1875 C-5.6175 13.5275 -4.2975 12.8675 -2.9375 12.1875 C-3.02128906 11.40503906 -3.10507812 10.62257813 -3.19140625 9.81640625 C-3.29324219 8.80449219 -3.39507813 7.79257812 -3.5 6.75 C-3.60441406 5.74066406 -3.70882812 4.73132812 -3.81640625 3.69140625 C-3.85636719 2.86511719 -3.89632812 2.03882812 -3.9375 1.1875 C-2.9375 0.1875 -2.9375 0.1875 0 0 Z " fill="#EDD4D6" transform="translate(541.9375,28.8125)"/>
<path d="M0 0 C2.99324263 1.0975223 3.84610901 1.67682892 5.25 4.625 C5.4975 5.40875 5.745 6.1925 6 7 C4.3125 9.0625 4.3125 9.0625 2 11 C-0.5625 11.0625 -0.5625 11.0625 -3 10 C-4.8125 7.4375 -4.8125 7.4375 -6 5 C-4.02 3.35 -2.04 1.7 0 0 Z " fill="#EDE0E1" transform="translate(553,62)"/>
<path d="M0 0 C0.66 0 1.32 0 2 0 C2 0.99 2 1.98 2 3 C4.64 3 7.28 3 10 3 C9.38511719 3.87011719 9.38511719 3.87011719 8.7578125 4.7578125 C5.78971393 9.06084535 3.31573874 12.8686189 2 18 C-0.45391569 14.31912647 -0.22802759 11.55644412 -0.125 7.3125 C-0.11597656 6.61060547 -0.10695312 5.90871094 -0.09765625 5.18554688 C-0.07413704 3.45688475 -0.03826713 1.72839855 0 0 Z " fill="#DEDEDE" transform="translate(199,92)"/>
<path d="M0 0 C2.20700414 0.96556431 3.42932829 2.06872753 5 3.875 C3.55746343 7.24091866 1.66735273 9.38547079 -1 11.875 C-3.5625 9.625 -3.5625 9.625 -6 6.875 C-6 4.21576754 -5.2306065 3.19345659 -3.6875 1.0625 C-2 -0.125 -2 -0.125 0 0 Z " fill="#EDE1E2" transform="translate(531,63.125)"/>
<path d="M0 0 C4 4 8 8 12 12 C11.34 13.32 10.68 14.64 10 16 C9.34 15.67 8.68 15.34 8 15 C8 13.68 8 12.36 8 11 C5.66229203 10.30734579 3.83200144 10.00399997 1.375 10.0625 C-1 10 -1 10 -3 8 C-3.3125 5.5625 -3.3125 5.5625 -3 3 C-1.5 1.1875 -1.5 1.1875 0 0 Z " fill="#EDD5D7" transform="translate(518,72)"/>
<path d="M0 0 C1.32 0 2.64 0 4 0 C4 5.94 4 11.88 4 18 C2.68 18 1.36 18 0 18 C0 12.06 0 6.12 0 0 Z " fill="#171717" transform="translate(323,92)"/>
<path d="M0 0 C0.66 0 1.32 0 2 0 C2.22786458 2.01822917 2.45572917 4.03645833 2.68359375 6.0546875 C2.91292961 8.07404316 2.91292961 8.07404316 4 10 C3.01 10 2.02 10 1 10 C1.04640625 10.65226562 1.0928125 11.30453125 1.140625 11.9765625 C1.39266565 18.07954686 0.96057979 21.2968115 -3 26 C-3.99 25.34 -4.98 24.68 -6 24 C-5.731875 23.505 -5.46375 23.01 -5.1875 22.5 C-1.56431687 14.87224605 -0.40700558 8.42080503 0 0 Z " fill="#060606" transform="translate(481,88)"/>
<path d="M0 0 C0.66 0 1.32 0 2 0 C2 7.92 2 15.84 2 24 C1.01 24 0.02 24 -1 24 C-1.33 23.34 -1.66 22.68 -2 22 C-4.54941373 21.68758629 -7.00361513 21.48696579 -9.5625 21.375 C-10.27341797 21.33632812 -10.98433594 21.29765625 -11.71679688 21.2578125 C-13.47742425 21.16328217 -15.23867728 21.08054183 -17 21 C-17 20.67 -17 20.34 -17 20 C-11.39 20 -5.78 20 0 20 C0 13.4 0 6.8 0 0 Z " fill="#030303" transform="translate(440,89)"/>
<path d="M0 0 C0.33 0 0.66 0 1 0 C1 5.61 1 11.22 1 17 C0.67 16.01 0.34 15.02 0 14 C-2.64 14 -5.28 14 -8 14 C-6.47987167 10.54516288 -4.37385365 7.68504536 -2.12109375 4.68359375 C-0.81448821 2.88113235 -0.81448821 2.88113235 0 0 Z " fill="#E0E0E0" transform="translate(214,93)"/>
<path d="M0 0 C1.65 0 3.3 0 5 0 C5 2.64 5 5.28 5 8 C2.69 8.66 0.38 9.32 -2 10 C-3 8 -3 8 -2.44140625 6.0546875 C-2.15136719 5.33539063 -1.86132812 4.61609375 -1.5625 3.875 C-1.27503906 3.15054688 -0.98757813 2.42609375 -0.69140625 1.6796875 C-0.46324219 1.12539062 -0.23507812 0.57109375 0 0 Z " fill="#D8D8D8" transform="translate(459,101)"/>
<path d="M0 0 C0.99 0 1.98 0 3 0 C3 0.66 3 1.32 3 2 C1.56640625 3.41015625 1.56640625 3.41015625 -0.4375 5.0625 C-10.07225712 12.30370364 -10.07225712 12.30370364 -15.0625 22.5625 C-15.041875 23.696875 -15.02125 24.83125 -15 26 C-15.33 26 -15.66 26 -16 26 C-16.6219765 18.06979959 -16.6219765 18.06979959 -14.4375 14.3125 C-11.94978587 11.95236095 -9.38340426 9.73926261 -6.73828125 7.55859375 C-5.02498897 6.02240584 -3.66156025 4.4374263 -2.25 2.625 C-1.5075 1.75875 -0.765 0.8925 0 0 Z " fill="#E72130" transform="translate(545,80)"/>
<path d="M0 0 C2.31 0 4.62 0 7 0 C7 2.31 7 4.62 7 7 C4.69 7 2.38 7 0 7 C0 4.69 0 2.38 0 0 Z " fill="#BBBBBB" transform="translate(404,95)"/>
<path d="M0 0 C2.31 0 4.62 0 7 0 C7 2.31 7 4.62 7 7 C4.69 7 2.38 7 0 7 C0 4.69 0 2.38 0 0 Z " fill="#BEBEBE" transform="translate(394,95)"/>
<path d="M0 0 C2.64 0 5.28 0 8 0 C8 1.65 8 3.3 8 5 C9.32 5.33 10.64 5.66 12 6 C12.33 7.98 12.66 9.96 13 12 C11.02 12 9.04 12 7 12 C7 8.37 7 4.74 7 1 C4.69 1 2.38 1 0 1 C0 0.67 0 0.34 0 0 Z " fill="#343434" transform="translate(460,97)"/>
<path d="M0 0 C0.66 0.33 1.32 0.66 2 1 C-4.27 7.27 -10.54 13.54 -17 20 C-17.33 19.34 -17.66 18.68 -18 18 C-14.24011823 13.39414483 -10.36303633 9.42876079 -5.8359375 5.578125 C-3.7854109 3.81554469 -1.87227771 1.95028928 0 0 Z " fill="#2B2B2B" transform="translate(377,43)"/>
<path d="M0 0 C0.66 0.66 1.32 1.32 2 2 C1.360625 2.433125 0.72125 2.86625 0.0625 3.3125 C-2.26746003 4.91239177 -2.26746003 4.91239177 -3 8 C-4.62935241 9.37868281 -6.29749607 10.71274093 -8 12 C-8.66 12.66 -9.32 13.32 -10 14 C-11.98 12.35 -13.96 10.7 -16 9 C-15.34 8.34 -14.68 7.68 -14 7 C-12.68 7.99 -11.36 8.98 -10 10 C-6.7 6.7 -3.4 3.4 0 0 Z " fill="#EBAEB3" transform="translate(546,67)"/>
<path d="M0 0 C4.62 0 9.24 0 14 0 C14 0.99 14 1.98 14 3 C12.35 3 10.7 3 9 3 C9 3.66 9 4.32 9 5 C10.32 5.33 11.64 5.66 13 6 C11.35 6 9.7 6 8 6 C8 4.68 8 3.36 8 2 C7.34 1.67 6.68 1.34 6 1 C5.67 2.32 5.34 3.64 5 5 C5 4.34 5 3.68 5 3 C3.35 3 1.7 3 0 3 C0 2.01 0 1.02 0 0 Z " fill="#343434" transform="translate(424,93)"/>
<path d="M0 0 C0.99 0.33 1.98 0.66 3 1 C3.042721 2.66611905 3.04063832 4.33382885 3 6 C2 7 2 7 -1.0625 7.0625 C-2.5165625 7.0315625 -2.5165625 7.0315625 -4 7 C-3.43628586 3.73045798 -2.50037734 2.17424117 0 0 Z " fill="#EDE6E7" transform="translate(564,75)"/>
<path d="M0 0 C2.3125 0.1875 2.3125 0.1875 5 1 C6.8125 3.5625 6.8125 3.5625 8 6 C7.278125 6.556875 6.55625 7.11375 5.8125 7.6875 C2.93981825 9.97319636 2.93981825 9.97319636 0.3125 12.6875 C-2 15 -2 15 -4 16 C-2.34908222 11.70761377 0.73754566 9.1206085 4 6 C2.84826645 3.53199953 1.95216435 1.95216435 0 0 Z " fill="#EBAEB2" transform="translate(523,57)"/>
<path d="M0 0 C1.98 0 3.96 0 6 0 C6 0.99 6 1.98 6 3 C4.68 3 3.36 3 2 3 C2 3.99 2 4.98 2 6 C3.32 6 4.64 6 6 6 C6 6.66 6 7.32 6 8 C4.02 8 2.04 8 0 8 C0 5.36 0 2.72 0 0 Z " fill="#D0D0D0" transform="translate(423,96)"/>
<path d="M0 0 C1.32 0.33 2.64 0.66 4 1 C2.52307692 5.67692308 2.52307692 5.67692308 -0.125 7.3125 C-1.053125 7.6528125 -1.053125 7.6528125 -2 8 C-2.33 7.01 -2.66 6.02 -3 5 C-1.5625 2.3125 -1.5625 2.3125 0 0 Z " fill="#282828" transform="translate(271,106)"/>
<path d="M0 0 C0 0.33 0 0.66 0 1 C-1.794375 1.061875 -1.794375 1.061875 -3.625 1.125 C-7.94767468 1.64617354 -9.91672064 3.25378439 -12.7734375 6.4296875 C-13.92136972 7.89933321 -14.96557606 9.44836409 -16 11 C-15.81037036 6.92296284 -15.21550125 5.24782644 -12.5 2.125 C-8.63399746 -0.82636291 -4.65553289 -0.46555329 0 0 Z " fill="#E72F3D" transform="translate(524,46)"/>
<path d="M0 0 C-0.3125 3.375 -0.3125 3.375 -1 7 C-1.99 7.66 -2.98 8.32 -4 9 C-4.66 7.68 -5.32 6.36 -6 5 C-1.125 0 -1.125 0 0 0 Z " fill="#202020" transform="translate(481,105)"/>
<path d="M0 0 C1.65 0 3.3 0 5 0 C5 1.65 5 3.3 5 5 C3.02 5 1.04 5 -1 5 C-0.67 3.35 -0.34 1.7 0 0 Z " fill="#D1D1D1" transform="translate(352,102)"/>
<path d="M0 0 C0.33 0 0.66 0 1 0 C1 4.29 1 8.58 1 13 C0.34 12.67 -0.32 12.34 -1 12 C-1 10.02 -1 8.04 -1 6 C-2.32 6 -3.64 6 -5 6 C-5 5.34 -5 4.68 -5 4 C-3.35 4 -1.7 4 0 4 C0 2.68 0 1.36 0 0 Z " fill="#DEDEDE" transform="translate(438,92)"/>
<path d="M0 0 C2.97 0 5.94 0 9 0 C8.67 0.99 8.34 1.98 8 3 C7.34 2.67 6.68 2.34 6 2 C5.67 2.99 5.34 3.98 5 5 C5 4.34 5 3.68 5 3 C4.01 3 3.02 3 2 3 C1.67 3.66 1.34 4.32 1 5 C0.67 3.35 0.34 1.7 0 0 Z " fill="#AEAEAE" transform="translate(455,92)"/>
<path d="M0 0 C1.98 0.495 1.98 0.495 4 1 C4 2.98 4 4.96 4 7 C3.34 7 2.68 7 2 7 C2 6.34 2 5.68 2 5 C1.34 5 0.68 5 0 5 C0 6.98 0 8.96 0 11 C-0.33 11 -0.66 11 -1 11 C-1 8.36 -1 5.72 -1 3 C-0.34 2.67 0.32 2.34 1 2 C0.67 1.34 0.34 0.68 0 0 Z " fill="#232323" transform="translate(483,95)"/>
<path d="M0 0 C0.99 0.33 1.98 0.66 3 1 C2.34 2.65 1.68 4.3 1 6 C-0.32 6 -1.64 6 -3 6 C-2 4 -1 2 0 0 Z " fill="#222222" transform="translate(450,102)"/>
<path d="M0 0 C1.98 1.65 3.96 3.3 6 5 C4.35 6.98 2.7 8.96 1 11 C0.34 10.67 -0.32 10.34 -1 10 C-0.484375 9.5875 0.03125 9.175 0.5625 8.75 C1.036875 8.1725 1.51125 7.595 2 7 C1.8237956 4.96128755 1.8237956 4.96128755 1 3 C0.67 2.01 0.34 1.02 0 0 Z " fill="#EBA4AA" transform="translate(548,56)"/>
<path d="M0 0 C1.65 0 3.3 0 5 0 C4 3 4 3 3 5 C2.01 5 1.02 5 0 5 C0 3.35 0 1.7 0 0 Z " fill="#505050" transform="translate(432,100)"/>
<path d="M0 0 C0.66 0 1.32 0 2 0 C3.2890625 1.53125 3.2890625 1.53125 4.625 3.5 C5.07101562 4.1496875 5.51703125 4.799375 5.9765625 5.46875 C6.31429687 5.9740625 6.65203125 6.479375 7 7 C6.01 7 5.02 7 4 7 C3.566875 6.0409375 3.566875 6.0409375 3.125 5.0625 C2.17176549 2.84793921 2.17176549 2.84793921 0 2 C0 1.34 0 0.68 0 0 Z " fill="#EA858C" transform="translate(546,77)"/>
<path d="M0 0 C0.66 0 1.32 0 2 0 C1.731875 0.515625 1.46375 1.03125 1.1875 1.5625 C-0.32349407 4.66401415 -1.65572726 7.82262806 -3 11 C-3.75 9.4375 -3.75 9.4375 -4 7 C-2.86915563 4.49713591 -1.47860484 2.32992278 0 0 Z " fill="#3D3D3D" transform="translate(209,22)"/>
<path d="M0 0 C1.32 0.33 2.64 0.66 4 1 C4.33 2.98 4.66 4.96 5 7 C3.68 7 2.36 7 1 7 C1 6.34 1 5.68 1 5 C1.66 5 2.32 5 3 5 C2.2236068 1.9254644 2.2236068 1.9254644 0 0 Z " fill="#515151" transform="translate(468,102)"/>
<path d="M0 0 C0.66 0.66 1.32 1.32 2 2 C-1.465 4.97 -1.465 4.97 -5 8 C-5 6.68 -5 5.36 -5 4 C-4.360625 3.71125 -3.72125 3.4225 -3.0625 3.125 C-0.84793921 2.17176549 -0.84793921 2.17176549 0 0 Z " fill="#EA8A91" transform="translate(539,84)"/>
</svg>
